# xmcd CD database file
#
# Track frame offsets:
#	182
#	24030
#	43530
#	65495
#
# Disc length: 1190 seconds
#
# Revision: 3
# Processed by: cddbd v1.5.2PL0 Copyright (c) Steve Scherf et al.
# Submitted via: CDex 1.70beta2
#
DISCID=2604a404
DTITLE=Van Morrison - The Healing Game
DYEAR=1997
DGENRE=Singer-/Songwriter Folk
TTITLE0=The Healing Game
TTITLE1=Have I Told You Lately That I Love You
TTITLE2=Whenever God Shines His Light
TTITLE3=Gloria
EXTD=UK single disc YEAR: 1997
EXTT0=
EXTT1=
EXTT2=with Cliff Richards
EXTT3=with John Lee Hooker
PLAYORDER=
